# xmcd
#
# Track frame offsets: 
#        150
#        15208
#        28145
#        41900
#        55520
#        68050
#        82278
#        91495
#        106705
#        120293
#        133443
#        142078
#        152640
#        168103
#
# Disc length: 2423 seconds
#
# Revision: 0
# Processed by: cddbd v1.5.2PL0 Copyright (c) Steve Scherf et al.
# Submitted via: ExactAudioCopyFreeDBPlugin 1.0
#
DISCID=b409750e
DTITLE=Bing Crosby - Big Artist Series
DYEAR=1900
DGENRE=Ballad
TTITLE0=PRISIONER OF LOVE
TTITLE1=AIN'T MISBEHAVIN'
TTITLE2=MONA LISA
TTITLE3=MEMORIES ARE MADE OF THIS
TTITLE4=APRIL SHOWERS
TTITLE5=WHEN MY BABY SMILES AT ME
TTITLE6=BETWEEN THE DEVIL AND THE DEEP BLUE SEA
TTITLE7=GEORGIA ON MY MIND
TTITLE8=WHEN I TAKE MY SUGAR TO TEA
TTITLE9=ON THE ALAMO
TTITLE10=AVALON
TTITLE11=IF I COULD BE WITH YOU
TTITLE12=SOFTLY AS IN A MORNING SUNRISE
TTITLE13=WHITE CHRISTMAS
EXTD=
EXTT0=
EXTT1=
EXTT2=
EXTT3=
EXTT4=
EXTT5=
EXTT6=
EXTT7=
EXTT8=
EXTT9=
EXTT10=
EXTT11=
EXTT12=
EXTT13=
PLAYORDER=
